<?xml version="1.0" encoding="UTF-8" standalone="no"?>
<!-- Created with Inkscape (http://www.inkscape.org/) -->

<svg
   width="210mm"
   height="297mm"
   viewBox="16 51 78 75"
   version="1.1"
   id="svg3603"
   inkscape:version="1.1.2 (0a00cf5339, 2022-02-04)"
   sodipodi:docname="logo.svg"
   xmlns:inkscape="http://www.inkscape.org/namespaces/inkscape"
   xmlns:sodipodi="http://sodipodi.sourceforge.net/DTD/sodipodi-0.dtd"
   xmlns="http://www.w3.org/2000/svg"
   xmlns:svg="http://www.w3.org/2000/svg">
  <sodipodi:namedview
     id="namedview3605"
     pagecolor="#ffffff"
     bordercolor="#666666"
     borderopacity="1.0"
     inkscape:pageshadow="2"
     inkscape:pageopacity="0.0"
     inkscape:pagecheckerboard="0"
     inkscape:document-units="mm"
     showgrid="false"
     inkscape:zoom="0.69397447"
     inkscape:cx="824.95831"
     inkscape:cy="561.25984"
     inkscape:window-width="1920"
     inkscape:window-height="1003"
     inkscape:window-x="0"
     inkscape:window-y="0"
     inkscape:window-maximized="1"
     inkscape:current-layer="layer1"
     inkscape:snap-page="false"
     inkscape:snap-text-baseline="false" />
  <defs
     id="defs3600" />
  <g
     inkscape:label="Layer 1"
     inkscape:groupmode="layer"
     id="layer1">
    
    <path
       d="m 21.396681,83.770308 h 64.029166 v 0.529167 h -0.264583 v 3.175 h -34.13125 v 0.264583 h -0.264583 v 1.5875 h 0.529166 v 0.264583 h 33.3375 v 0.264584 h -0.264583 v 0.529166 H 84.10293 v 0.264584 h -0.264583 v 0.264583 h -0.264583 v 0.264583 H 83.30918 v 0.264584 h -0.264583 v 0.264583 h -0.264583 v 0.264583 h -0.529167 v 0.264584 h -0.264583 v 0.264583 H 81.72168 v 0.264583 h -0.529166 v 0.264584 h -5.291667 v 0.264583 H 74.57793 v 0.264583 h -0.79375 v 0.264584 h -0.79375 v 0.264583 h -0.79375 v 0.264583 h -0.529166 v 0.264584 h -0.529167 v 0.264583 H 70.60918 v 0.264583 h -0.529166 v 0.264584 H 69.81543 v 0.264583 h -0.264583 v 0.264583 H 69.02168 v 0.264584 h -0.264583 v 0.264583 h -0.264583 v 0.264583 H 68.22793 v 0.264584 h -0.264583 v 0.264583 h -0.264583 v 0.264583 H 67.43418 v 0.264583 h -0.264583 v 0.264584 h -0.264583 v 0.264583 H 66.64043 v 0.529167 h -0.264583 v 0.529166 h -0.264583 v 0.529167 H 65.84668 v 0.529169 h -0.264583 v 2.38125 h 0.264583 v 1.05833 h 0.264584 v 0.52917 h 0.264583 v 0.52916 h 0.264583 v 0.52917 h 0.264584 v 0.26458 h 0.264583 v 0.26459 h 0.264583 v 0.26458 h 0.264584 v 0.26458 h 0.264583 v 0.26459 h 0.264583 v 0.26458 h 0.264584 v 0.26458 h 0.264583 v 0.26459 h 0.529167 v 0.26458 h 0.264583 v 0.26458 h 0.264583 v 0.26459 h 0.529167 v 0.26458 h 0.264583 v 0.26458 h 0.529167 v 0.26459 h 0.529167 v 0.26458 h 0.264583 v 0.26458 h 0.529167 v 0.26459 h 0.264583 v 0.26458 h 0.529167 v 0.26458 h 0.529166 v 0.26459 h 0.529167 v 0.26458 h 0.264583 v 0.26458 h 0.529167 v 3.96875 h -8.73125 v -1.32291 h -0.264583 v -0.52917 H 65.84668 v -0.79375 h -0.264583 v -0.26458 h -0.264583 v -0.52917 H 65.05293 v -0.52917 h -0.264583 v -0.26458 h -0.264583 v -0.26458 H 64.25918 v -0.26459 h -0.264583 v -0.26458 h -0.264583 v -0.52917 h -0.529167 v -0.26458 h -0.264583 v -0.26458 H 62.67168 v -0.26459 h -0.264583 v -0.26458 H 61.87793 v -0.26458 h -0.264583 v -0.26459 h -0.529166 v -0.26458 h -0.529167 v -0.26458 h -0.529167 v -0.26459 h -0.529166 v -0.26458 h -1.058334 v -0.26458 h -3.96875 v 0.26458 h -1.058333 v 0.26458 h -0.79375 v 0.26459 h -0.529167 v 0.26458 h -0.264583 v 0.26458 h -0.529167 v 0.26459 h -0.264583 v 0.26458 h -0.529167 v 0.26458 h -0.264583 v 0.26459 h -0.264583 v 0.26458 h -0.264584 v 0.26458 h -0.529166 v 0.52917 h -0.264584 v 0.26458 h -0.264583 v 0.26459 h -0.264583 v 0.26458 h -0.264584 v 0.26458 h -0.264583 v 0.52917 h -0.264583 v 0.26458 h -0.264584 v 0.52917 h -0.264583 v 0.52917 h -0.264583 v 0.52916 h -0.264584 v 1.05834 h -0.264583 v 0.79375 h -8.995833 v -4.23334 h 0.529166 v -0.26458 h 0.529167 v -0.26458 h 0.264583 v -0.26459 h 0.529167 v -0.26458 h 0.529167 v -0.26458 h 0.264583 v -0.26459 h 0.529167 v -0.26458 h 0.529166 v -0.26458 h 0.264584 v -0.26459 h 0.529166 v -0.26458 h 0.529167 v -0.26458 h 0.264583 v -0.26459 h 0.529167 v -0.26458 h 0.264583 v -0.26458 h 0.529167 v -0.26459 h 0.264583 v -0.26458 h 0.264584 v -0.26458 h 0.264583 v -0.26459 h 0.264583 v -0.26458 h 0.264584 v -0.26458 h 0.264583 v -0.52917 h 0.264583 v -0.52917 h 0.264584 v -0.79375 h 0.264583 v -1.85208 h -0.264583 v -0.79375 h -0.264584 v -0.26458 h -0.264583 v -0.52917 h -0.264583 v -0.26458 h -0.264584 v -0.26459 h -0.529166 v -0.264579 h -0.264584 v -0.264583 h -0.529166 v -0.264584 h -0.529167 v -0.264583 h -0.529167 v -0.264583 h -0.529166 v -0.264584 h -0.79375 v -0.264583 h -0.79375 v -0.264583 h -1.058334 v -0.264584 h -0.79375 v -0.264583 h -0.79375 v -0.264583 h -1.058333 v -0.264583 h -0.79375 v -0.264584 h -0.79375 v -0.264583 h -0.79375 v -0.264583 h -0.529166 v -0.264584 h -0.79375 v -0.264583 h -0.79375 v -0.264583 h -0.79375 v -0.264584 h -0.529167 v -0.264583 h -0.529167 v -0.264583 h -0.529166 v -0.264584 h -0.79375 v -0.264583 h -0.529167 v -0.264583 h -0.264583 v -0.264584 h -0.529167 v -0.264583 h -0.529167 v -0.264583 h -0.529166 v -0.264584 h -0.264584 v -0.264583 h -0.529166 v -0.264583 h -0.264584 v -0.264584 h -0.529166 v -0.264583 h -0.264584 v -0.264583 h -0.264583 v -0.264584 h -0.529167 v -0.264583 h -0.264583 v -0.264583 h -0.264583 v -0.264584 h -0.264584 v -0.264583 h -0.264583 v -0.264583 h -0.264583 v -0.264584 h -0.264584 v -0.529166 h -0.264583 v -0.264584 h -0.264583 v -0.264583 h -0.264584 v -0.529167 h -0.264583 z"
       style="display:block;fill:#E44725;stroke-width:0.264583"
       id="path74" />
    <path
       d="m 53.14668,60.486975 h 6.35 v 0.264583 h 0.264583 v 2.116667 h 0.264584 v 1.5875 h 0.264583 v 0.79375 h 0.79375 v 0.264583 h 0.79375 v 0.264584 h 0.79375 v 0.264583 h 0.529167 v 0.264583 h 0.79375 v 0.264584 h 0.529166 v 0.264583 h 0.529167 v 0.264583 h 0.529167 v 0.264584 h 0.529166 v -0.264584 h 0.264584 v -0.264583 h 0.264583 v -0.264583 h 0.529166 v -0.264584 h 0.264584 v -0.264583 h 0.264583 v -0.264583 h 0.529167 v -0.264584 h 0.264583 v -0.264583 h 0.529167 v -0.264583 h 0.264583 v -0.264584 h 0.529167 v 0.264584 h 0.264583 v 0.264583 h 0.264583 v 0.264583 h 0.264584 v 0.264584 h 0.529166 v 0.264583 h 0.264584 v 0.264583 h 0.264583 v 0.264584 h 0.264583 v 0.264583 h 0.264584 v 0.264583 h 0.529166 v 0.264584 h 0.264584 v 0.264583 h 0.264583 v 0.264583 h 0.264583 v 0.264584 h 0.264584 v 0.529166 h 0.264583 v 0.529167 H 73.78418 v 0.264583 h -0.264584 v 0.264584 h -0.264583 v 0.529166 H 72.99043 v 0.264584 h -0.264584 v 0.264583 h -0.264583 v 0.529167 H 72.19668 v 0.264583 h -0.264584 v 0.264583 h -0.264583 v 0.264584 H 71.40293 v 0.529166 h -0.264584 v 0.264584 h -0.264583 v 0.79375 h 0.264583 v 0.529166 h 0.264584 v 0.529167 h 0.264583 v 0.264583 h 0.264583 v 0.529167 h 0.264584 v 0.529166 h 0.264583 v 0.529167 h 0.264583 v 0.264583 h 0.264584 v 0.529167 h 0.264583 v 0.529167 h 0.264583 v 0.264583 h 1.322917 v 0.264583 h 2.645833 v 1.058334 h 0.264584 v 1.058333 H 67.169596 v -0.79375 h -0.264583 v -0.79375 H 66.64043 v -0.529167 h -0.264583 v -0.79375 H 66.111263 V 77.155725 H 65.84668 V 76.891141 H 65.582097 V 76.361975 H 65.317513 V 76.097391 H 65.05293 V 75.568225 H 64.788347 V 75.303641 H 64.523763 V 75.039058 H 64.25918 V 74.774475 H 63.994597 V 74.509891 H 63.730013 V 74.245308 H 63.46543 V 73.980725 H 63.200847 V 73.716142 H 62.936263 V 73.451558 H 62.67168 V 73.186975 H 62.142513 V 72.922392 H 61.87793 V 72.657808 H 61.348763 V 72.393225 H 61.08418 v -0.264583 h -0.529167 v -0.264584 h -0.529166 v -0.264583 h -0.79375 v -0.264583 h -0.79375 V 71.070308 H 53.94043 v 0.264584 h -0.79375 v 0.264583 h -0.529167 v 0.264583 h -0.529166 v 0.264584 H 51.55918 v 0.264583 h -0.529167 v 0.264583 H 50.76543 v 0.264584 h -0.264583 v 0.264583 H 49.97168 v 0.264583 h -0.264583 v 0.264584 h -0.264584 v 0.264583 H 49.17793 v 0.264583 h -0.264583 v 0.264583 h -0.264584 v 0.264584 H 48.38418 v 0.529166 h -0.264583 v 0.264584 h -0.264584 v 0.529166 H 47.59043 v 0.264584 h -0.264583 v 0.529166 h -0.264584 v 0.529167 H 46.79668 v 0.529167 h -0.264583 v 0.79375 h -0.264584 v 0.79375 H 46.00293 v 1.058333 H 35.155014 v -2.116667 h 2.116666 v -0.264583 h 2.38125 v -0.264583 h 0.264584 v -0.529167 h 0.264583 v -0.264583 h 0.264583 v -0.529167 h 0.264583 v -0.529167 h 0.264584 v -0.529166 h 0.264583 v -0.529167 h 0.264583 v -0.529167 h 0.264584 v -0.529166 h 0.264583 v -0.264583 h 0.264583 V 73.186975 H 42.03418 V 72.922392 H 41.769597 V 72.393225 H 41.505013 V 72.128642 H 41.24043 V 71.599475 H 40.975847 V 71.334892 H 40.711263 V 70.805725 H 40.44668 V 70.541142 H 40.182097 V 70.011975 H 39.917514 V 69.747392 H 39.65293 v -0.264584 h -0.264583 v -0.529166 h -0.264583 v -0.264584 h 0.264583 v -0.264583 h 0.264583 v -0.264583 h 0.264584 v -0.264584 h 0.264583 v -0.264583 h 0.264583 v -0.264583 h 0.264583 v -0.264584 h 0.264584 v -0.264583 h 0.529166 v -0.264583 h 0.264584 v -0.264584 h 0.264583 v -0.264583 h 0.264583 v -0.264583 h 0.264584 v -0.264584 h 0.529166 v -0.264583 h 0.264584 v -0.264583 h 0.264583 v -0.264584 h 0.79375 v 0.264584 h 0.264583 v 0.264583 h 0.529167 v 0.264583 h 0.264583 v 0.264584 h 0.264584 v 0.264583 h 0.529166 v 0.264583 h 0.264584 v 0.264584 h 0.264583 v 0.264583 h 0.529167 v 0.264583 h 0.264583 v 0.264584 h 0.79375 v -0.264584 h 0.529167 v -0.264583 h 0.529166 v -0.264583 h 0.79375 v -0.264584 h 0.529167 v -0.264583 h 0.79375 v -0.264583 h 0.79375 v -0.264584 h 0.529167 v -2.910416 h 0.264583 z"
       style="display:block;fill:#E44725;stroke-width:0.264583"
       id="path86" />
    <path
       d="M 24.307097,87.209891 H 43.62168 v 7.9375 H 42.82793 V 94.882808 H 41.505013 V 94.618224 H 40.44668 v -0.264583 h -0.79375 v -0.264583 h -1.058333 v -0.264584 h -0.79375 v -0.264583 h -1.058333 v -0.264583 h -0.79375 v -0.264584 h -0.79375 v -0.264583 h -0.79375 V 92.501558 H 33.30293 v -0.264584 h -0.529166 v -0.264583 h -0.79375 v -0.264583 h -0.79375 v -0.264584 h -0.79375 V 91.178641 H 29.863347 V 90.914058 H 29.33418 V 90.649474 H 28.805014 V 90.384891 H 28.275847 V 90.120308 H 27.74668 V 89.855724 H 27.217514 V 89.591141 H 26.688347 V 89.326558 H 26.423764 V 89.061974 H 25.894597 V 88.797391 H 25.630014 V 88.532808 H 25.100847 V 88.268224 H 24.836264 V 88.003641 H 24.57168 v -0.264583 h -0.264583 z"
       style="display:block;fill:#1e2633;stroke-width:0.264583"
       id="path92" />
  </g>
</svg>
