<?xml version="1.0" encoding="UTF-8" standalone="no"?>
<!-- Generator: visioncortex VTracer -->

<svg
   id="svg"
   version="1.1"
   style="display: block;"
   viewBox="0 0 1024 1024"
   sodipodi:docname="obrasa.svg"
   inkscape:version="1.1.2 (0a00cf5339, 2022-02-04)"
   xmlns:inkscape="http://www.inkscape.org/namespaces/inkscape"
   xmlns:sodipodi="http://sodipodi.sourceforge.net/DTD/sodipodi-0.dtd"
   xmlns="http://www.w3.org/2000/svg"
   xmlns:svg="http://www.w3.org/2000/svg">
  <defs
     id="defs107" />
  <sodipodi:namedview
     id="namedview105"
     pagecolor="#ffffff"
     bordercolor="#666666"
     borderopacity="1.0"
     inkscape:pageshadow="2"
     inkscape:pageopacity="0.0"
     inkscape:pagecheckerboard="0"
     showgrid="false"
     inkscape:zoom="0.77246094"
     inkscape:cx="511.35272"
     inkscape:cy="512"
     inkscape:window-width="1920"
     inkscape:window-height="1003"
     inkscape:window-x="0"
     inkscape:window-y="0"
     inkscape:window-maximized="1"
     inkscape:current-layer="svg" />
  <path
     d="M 1.2945638,327.52465 H 1024 V 661.52212 H 1.2945638 Z"
     style="fill:#1e2633;stroke-width:0.570752"
     id="path72" />
  <path
     d="M0,0 L242,0 L242,2 L241,2 L241,14 L112,14 L112,15 L111,15 L111,21 L113,21 L113,22 L239,22 L239,23 L238,23 L238,25 L237,25 L237,26 L236,26 L236,27 L235,27 L235,28 L234,28 L234,29 L233,29 L233,30 L232,30 L232,31 L230,31 L230,32 L229,32 L229,33 L228,33 L228,34 L226,34 L226,35 L206,35 L206,36 L201,36 L201,37 L198,37 L198,38 L195,38 L195,39 L192,39 L192,40 L190,40 L190,41 L188,41 L188,42 L186,42 L186,43 L184,43 L184,44 L183,44 L183,45 L182,45 L182,46 L180,46 L180,47 L179,47 L179,48 L178,48 L178,49 L177,49 L177,50 L176,50 L176,51 L175,51 L175,52 L174,52 L174,53 L173,53 L173,54 L172,54 L172,55 L171,55 L171,57 L170,57 L170,59 L169,59 L169,61 L168,61 L168,63 L167,63 L167,72 L168,72 L168,76 L169,76 L169,78 L170,78 L170,80 L171,80 L171,82 L172,82 L172,83 L173,83 L173,84 L174,84 L174,85 L175,85 L175,86 L176,86 L176,87 L177,87 L177,88 L178,88 L178,89 L179,89 L179,90 L181,90 L181,91 L182,91 L182,92 L183,92 L183,93 L185,93 L185,94 L186,94 L186,95 L188,95 L188,96 L190,96 L190,97 L191,97 L191,98 L193,98 L193,99 L194,99 L194,100 L196,100 L196,101 L198,101 L198,102 L200,102 L200,103 L201,103 L201,104 L203,104 L203,119 L170,119 L170,114 L169,114 L169,112 L168,112 L168,109 L167,109 L167,108 L166,108 L166,106 L165,106 L165,104 L164,104 L164,103 L163,103 L163,102 L162,102 L162,101 L161,101 L161,100 L160,100 L160,98 L158,98 L158,97 L157,97 L157,96 L156,96 L156,95 L155,95 L155,94 L153,94 L153,93 L152,93 L152,92 L150,92 L150,91 L148,91 L148,90 L146,90 L146,89 L144,89 L144,88 L140,88 L140,87 L125,87 L125,88 L121,88 L121,89 L118,89 L118,90 L116,90 L116,91 L115,91 L115,92 L113,92 L113,93 L112,93 L112,94 L110,94 L110,95 L109,95 L109,96 L108,96 L108,97 L107,97 L107,98 L105,98 L105,100 L104,100 L104,101 L103,101 L103,102 L102,102 L102,103 L101,103 L101,104 L100,104 L100,106 L99,106 L99,107 L98,107 L98,109 L97,109 L97,111 L96,111 L96,113 L95,113 L95,117 L94,117 L94,120 L60,120 L60,104 L62,104 L62,103 L64,103 L64,102 L65,102 L65,101 L67,101 L67,100 L69,100 L69,99 L70,99 L70,98 L72,98 L72,97 L74,97 L74,96 L75,96 L75,95 L77,95 L77,94 L79,94 L79,93 L80,93 L80,92 L82,92 L82,91 L83,91 L83,90 L85,90 L85,89 L86,89 L86,88 L87,88 L87,87 L88,87 L88,86 L89,86 L89,85 L90,85 L90,84 L91,84 L91,82 L92,82 L92,80 L93,80 L93,77 L94,77 L94,70 L93,70 L93,67 L92,67 L92,66 L91,66 L91,64 L90,64 L90,63 L89,63 L89,62 L87,62 L87,61 L86,61 L86,60 L84,60 L84,59 L82,59 L82,58 L80,58 L80,57 L78,57 L78,56 L75,56 L75,55 L72,55 L72,54 L68,54 L68,53 L65,53 L65,52 L62,52 L62,51 L58,51 L58,50 L55,50 L55,49 L52,49 L52,48 L49,48 L49,47 L47,47 L47,46 L44,46 L44,45 L41,45 L41,44 L38,44 L38,43 L36,43 L36,42 L34,42 L34,41 L32,41 L32,40 L29,40 L29,39 L27,39 L27,38 L26,38 L26,37 L24,37 L24,36 L22,36 L22,35 L20,35 L20,34 L19,34 L19,33 L17,33 L17,32 L16,32 L16,31 L14,31 L14,30 L13,30 L13,29 L12,29 L12,28 L10,28 L10,27 L9,27 L9,26 L8,26 L8,25 L7,25 L7,24 L6,24 L6,23 L5,23 L5,22 L4,22 L4,20 L3,20 L3,19 L2,19 L2,18 L1,18 L1,16 L0,16 Z "
     transform="translate(81,460)"
     style="fill: #E44725;"
     id="path74" />
  <path
     d="M0,0 L40,0 L40,1 L43,1 L43,2 L46,2 L46,3 L48,3 L48,4 L50,4 L50,5 L51,5 L51,6 L52,6 L52,7 L54,7 L54,8 L55,8 L55,10 L56,10 L56,11 L57,11 L57,13 L58,13 L58,15 L59,15 L59,17 L60,17 L60,20 L61,20 L61,87 L60,87 L60,91 L59,91 L59,93 L58,93 L58,95 L57,95 L57,97 L56,97 L56,98 L55,98 L55,99 L54,99 L54,100 L53,100 L53,101 L52,101 L52,102 L51,102 L51,103 L49,103 L49,104 L47,104 L47,105 L45,105 L45,106 L42,106 L42,107 L-1,107 L-1,106 L-4,106 L-4,105 L-6,105 L-6,104 L-8,104 L-8,103 L-10,103 L-10,102 L-11,102 L-11,101 L-13,101 L-13,100 L-14,100 L-14,99 L-15,99 L-15,97 L-16,97 L-16,96 L-17,96 L-17,94 L-18,94 L-18,92 L-19,92 L-19,90 L-20,90 L-20,85 L-21,85 L-21,22 L-20,22 L-20,18 L-19,18 L-19,16 L-18,16 L-18,14 L-17,14 L-17,12 L-16,12 L-16,10 L-15,10 L-15,9 L-14,9 L-14,8 L-13,8 L-13,7 L-12,7 L-12,6 L-11,6 L-11,5 L-9,5 L-9,4 L-8,4 L-8,3 L-6,3 L-6,2 L-3,2 L-3,1 L0,1 Z "
     transform="translate(387,446)"
     style="fill: #E8E4DD;"
     id="path76" />
  <path
     d="M0,0 L54,0 L54,1 L59,1 L59,2 L61,2 L61,3 L64,3 L64,4 L65,4 L65,5 L67,5 L67,6 L68,6 L68,7 L69,7 L69,8 L70,8 L70,9 L71,9 L71,11 L72,11 L72,13 L73,13 L73,15 L74,15 L74,17 L75,17 L75,39 L74,39 L74,41 L73,41 L73,43 L72,43 L72,44 L71,44 L71,45 L70,45 L70,46 L69,46 L69,47 L68,47 L68,48 L66,48 L66,49 L63,49 L63,51 L67,51 L67,52 L69,52 L69,53 L71,53 L71,54 L72,54 L72,55 L73,55 L73,56 L74,56 L74,57 L75,57 L75,59 L76,59 L76,61 L77,61 L77,63 L78,63 L78,66 L79,66 L79,86 L78,86 L78,89 L77,89 L77,92 L76,92 L76,94 L75,94 L75,96 L74,96 L74,97 L73,97 L73,98 L72,98 L72,99 L71,99 L71,100 L70,100 L70,101 L69,101 L69,102 L67,102 L67,103 L65,103 L65,104 L62,104 L62,105 L57,105 L57,106 L0,106 Z "
     transform="translate(464,447)"
     style="fill: #E8E4DD;"
     id="path78" />
  <path
     d="M0,0 L54,0 L54,1 L59,1 L59,2 L62,2 L62,3 L64,3 L64,4 L66,4 L66,5 L68,5 L68,6 L69,6 L69,7 L70,7 L70,8 L71,8 L71,9 L72,9 L72,11 L73,11 L73,12 L74,12 L74,14 L75,14 L75,17 L76,17 L76,20 L77,20 L77,48 L76,48 L76,51 L75,51 L75,54 L74,54 L74,55 L73,55 L73,57 L72,57 L72,58 L71,58 L71,60 L70,60 L70,61 L69,61 L69,62 L67,62 L67,63 L66,63 L66,64 L63,64 L63,65 L61,65 L61,66 L60,66 L60,67 L61,67 L61,69 L62,69 L62,71 L63,71 L63,73 L64,73 L64,75 L65,75 L65,77 L66,77 L66,79 L67,79 L67,81 L68,81 L68,83 L69,83 L69,85 L70,85 L70,87 L71,87 L71,89 L72,89 L72,91 L73,91 L73,93 L74,93 L74,94 L75,94 L75,96 L76,96 L76,98 L77,98 L77,100 L78,100 L78,102 L79,102 L79,104 L80,104 L80,105 L81,105 L81,106 L57,106 L57,105 L56,105 L56,103 L55,103 L55,101 L54,101 L54,100 L53,100 L53,98 L52,98 L52,96 L51,96 L51,94 L50,94 L50,92 L49,92 L49,91 L48,91 L48,89 L47,89 L47,87 L46,87 L46,85 L45,85 L45,83 L44,83 L44,82 L43,82 L43,80 L42,80 L42,78 L41,78 L41,76 L40,76 L40,74 L39,74 L39,73 L38,73 L38,71 L37,71 L37,69 L36,69 L36,68 L21,68 L21,106 L0,106 Z "
     transform="translate(557,447)"
     style="fill: #E8E4DD;"
     id="path80" />
  <path
     d="M0,0 L27,0 L27,1 L28,1 L28,4 L29,4 L29,7 L30,7 L30,10 L31,10 L31,14 L32,14 L32,17 L33,17 L33,20 L34,20 L34,23 L35,23 L35,26 L36,26 L36,30 L37,30 L37,33 L38,33 L38,36 L39,36 L39,39 L40,39 L40,42 L41,42 L41,45 L42,45 L42,48 L43,48 L43,51 L44,51 L44,55 L45,55 L45,58 L46,58 L46,61 L47,61 L47,64 L48,64 L48,67 L49,67 L49,70 L50,70 L50,74 L51,74 L51,77 L52,77 L52,80 L53,80 L53,83 L54,83 L54,86 L55,86 L55,90 L56,90 L56,93 L57,93 L57,96 L58,96 L58,99 L59,99 L59,102 L60,102 L60,105 L61,105 L61,106 L38,106 L38,103 L37,103 L37,100 L36,100 L36,96 L35,96 L35,93 L34,93 L34,90 L33,90 L33,86 L32,86 L32,85 L-5,85 L-5,87 L-6,87 L-6,90 L-7,90 L-7,94 L-8,94 L-8,97 L-9,97 L-9,101 L-10,101 L-10,104 L-11,104 L-11,106 L-33,106 L-33,105 L-32,105 L-32,101 L-31,101 L-31,98 L-30,98 L-30,95 L-29,95 L-29,92 L-28,92 L-28,89 L-27,89 L-27,85 L-26,85 L-26,83 L-25,83 L-25,79 L-24,79 L-24,76 L-23,76 L-23,73 L-22,73 L-22,69 L-21,69 L-21,66 L-20,66 L-20,63 L-19,63 L-19,60 L-18,60 L-18,56 L-17,56 L-17,53 L-16,53 L-16,50 L-15,50 L-15,46 L-14,46 L-14,43 L-13,43 L-13,41 L-12,41 L-12,37 L-11,37 L-11,34 L-10,34 L-10,31 L-9,31 L-9,27 L-8,27 L-8,24 L-7,24 L-7,21 L-6,21 L-6,18 L-5,18 L-5,15 L-4,15 L-4,11 L-3,11 L-3,8 L-2,8 L-2,5 L-1,5 L-1,2 L0,2 Z "
     transform="translate(678,447)"
     style="fill: #E8E4DD;"
     id="path82" />
  <path
     d="M0,0 L28,0 L28,4 L29,4 L29,7 L30,7 L30,10 L31,10 L31,13 L32,13 L32,16 L33,16 L33,19 L34,19 L34,22 L35,22 L35,25 L36,25 L36,29 L37,29 L37,32 L38,32 L38,35 L39,35 L39,38 L40,38 L40,41 L41,41 L41,44 L42,44 L42,47 L43,47 L43,51 L44,51 L44,54 L45,54 L45,57 L46,57 L46,60 L47,60 L47,63 L48,63 L48,67 L49,67 L49,69 L50,69 L50,73 L51,73 L51,76 L52,76 L52,79 L53,79 L53,82 L54,82 L54,86 L55,86 L55,89 L56,89 L56,92 L57,92 L57,95 L58,95 L58,99 L59,99 L59,102 L60,102 L60,105 L61,105 L61,106 L38,106 L38,102 L37,102 L37,99 L36,99 L36,95 L35,95 L35,92 L34,92 L34,89 L33,89 L33,85 L-5,85 L-5,88 L-6,88 L-6,92 L-7,92 L-7,96 L-8,96 L-8,99 L-9,99 L-9,103 L-10,103 L-10,106 L-32,106 L-32,105 L-31,105 L-31,101 L-30,101 L-30,98 L-29,98 L-29,95 L-28,95 L-28,91 L-27,91 L-27,88 L-26,88 L-26,85 L-25,85 L-25,82 L-24,82 L-24,78 L-23,78 L-23,75 L-22,75 L-22,72 L-21,72 L-21,68 L-20,68 L-20,65 L-19,65 L-19,63 L-18,63 L-18,59 L-17,59 L-17,56 L-16,56 L-16,52 L-15,52 L-15,49 L-14,49 L-14,46 L-13,46 L-13,42 L-12,42 L-12,40 L-11,40 L-11,36 L-10,36 L-10,33 L-9,33 L-9,29 L-8,29 L-8,26 L-7,26 L-7,23 L-6,23 L-6,20 L-5,20 L-5,16 L-4,16 L-4,13 L-3,13 L-3,10 L-2,10 L-2,7 L-1,7 L-1,4 L0,4 Z "
     transform="translate(860,447)"
     style="fill: #E8E4DD;"
     id="path84" />
  <path
     d="M0,0 L24,0 L24,1 L25,1 L25,9 L26,9 L26,15 L27,15 L27,18 L30,18 L30,19 L33,19 L33,20 L36,20 L36,21 L38,21 L38,22 L41,22 L41,23 L43,23 L43,24 L45,24 L45,25 L47,25 L47,26 L49,26 L49,25 L50,25 L50,24 L51,24 L51,23 L53,23 L53,22 L54,22 L54,21 L55,21 L55,20 L57,20 L57,19 L58,19 L58,18 L60,18 L60,17 L61,17 L61,16 L63,16 L63,17 L64,17 L64,18 L65,18 L65,19 L66,19 L66,20 L68,20 L68,21 L69,21 L69,22 L70,22 L70,23 L71,23 L71,24 L72,24 L72,25 L74,25 L74,26 L75,26 L75,27 L76,27 L76,28 L77,28 L77,29 L78,29 L78,31 L79,31 L79,33 L78,33 L78,34 L77,34 L77,35 L76,35 L76,37 L75,37 L75,38 L74,38 L74,39 L73,39 L73,41 L72,41 L72,42 L71,42 L71,43 L70,43 L70,44 L69,44 L69,46 L68,46 L68,47 L67,47 L67,50 L68,50 L68,52 L69,52 L69,54 L70,54 L70,55 L71,55 L71,57 L72,57 L72,59 L73,59 L73,61 L74,61 L74,62 L75,62 L75,64 L76,64 L76,66 L77,66 L77,67 L82,67 L82,68 L92,68 L92,72 L93,72 L93,76 L53,76 L53,73 L52,73 L52,70 L51,70 L51,68 L50,68 L50,65 L49,65 L49,63 L48,63 L48,62 L47,62 L47,60 L46,60 L46,59 L45,59 L45,57 L44,57 L44,56 L43,56 L43,55 L42,55 L42,54 L41,54 L41,53 L40,53 L40,52 L39,52 L39,51 L38,51 L38,50 L37,50 L37,49 L36,49 L36,48 L34,48 L34,47 L33,47 L33,46 L31,46 L31,45 L30,45 L30,44 L28,44 L28,43 L26,43 L26,42 L23,42 L23,41 L20,41 L20,40 L3,40 L3,41 L0,41 L0,42 L-2,42 L-2,43 L-4,43 L-4,44 L-6,44 L-6,45 L-8,45 L-8,46 L-9,46 L-9,47 L-10,47 L-10,48 L-12,48 L-12,49 L-13,49 L-13,50 L-14,50 L-14,51 L-15,51 L-15,52 L-16,52 L-16,53 L-17,53 L-17,54 L-18,54 L-18,56 L-19,56 L-19,57 L-20,57 L-20,59 L-21,59 L-21,60 L-22,60 L-22,62 L-23,62 L-23,64 L-24,64 L-24,66 L-25,66 L-25,69 L-26,69 L-26,72 L-27,72 L-27,76 L-68,76 L-68,68 L-60,68 L-60,67 L-51,67 L-51,66 L-50,66 L-50,64 L-49,64 L-49,63 L-48,63 L-48,61 L-47,61 L-47,59 L-46,59 L-46,57 L-45,57 L-45,55 L-44,55 L-44,53 L-43,53 L-43,51 L-42,51 L-42,50 L-41,50 L-41,48 L-42,48 L-42,47 L-43,47 L-43,45 L-44,45 L-44,44 L-45,44 L-45,42 L-46,42 L-46,41 L-47,41 L-47,39 L-48,39 L-48,38 L-49,38 L-49,36 L-50,36 L-50,35 L-51,35 L-51,34 L-52,34 L-52,32 L-53,32 L-53,31 L-52,31 L-52,30 L-51,30 L-51,29 L-50,29 L-50,28 L-49,28 L-49,27 L-48,27 L-48,26 L-47,26 L-47,25 L-46,25 L-46,24 L-44,24 L-44,23 L-43,23 L-43,22 L-42,22 L-42,21 L-41,21 L-41,20 L-40,20 L-40,19 L-38,19 L-38,18 L-37,18 L-37,17 L-36,17 L-36,16 L-33,16 L-33,17 L-32,17 L-32,18 L-30,18 L-30,19 L-29,19 L-29,20 L-28,20 L-28,21 L-26,21 L-26,22 L-25,22 L-25,23 L-24,23 L-24,24 L-22,24 L-22,25 L-21,25 L-21,26 L-18,26 L-18,25 L-16,25 L-16,24 L-14,24 L-14,23 L-11,23 L-11,22 L-9,22 L-9,21 L-6,21 L-6,20 L-3,20 L-3,19 L-1,19 L-1,8 L0,8 Z "
     transform="translate(201,372)"
     style="fill: #E44725;"
     id="path86" />
  <path
     d="M0,0 L28,0 L28,1 L32,1 L32,2 L36,2 L36,3 L38,3 L38,4 L41,4 L41,5 L42,5 L42,6 L43,6 L43,7 L45,7 L45,8 L46,8 L46,9 L47,9 L47,10 L48,10 L48,12 L49,12 L49,13 L50,13 L50,15 L51,15 L51,18 L52,18 L52,23 L53,23 L53,30 L32,30 L32,25 L31,25 L31,23 L30,23 L30,22 L28,22 L28,21 L26,21 L26,20 L2,20 L2,21 L0,21 L0,22 L-1,22 L-1,23 L-2,23 L-2,35 L-1,35 L-1,37 L0,37 L0,38 L3,38 L3,39 L6,39 L6,40 L9,40 L9,41 L14,41 L14,42 L18,42 L18,43 L22,43 L22,44 L26,44 L26,45 L30,45 L30,46 L34,46 L34,47 L36,47 L36,48 L39,48 L39,49 L41,49 L41,50 L43,50 L43,51 L44,51 L44,52 L46,52 L46,53 L47,53 L47,54 L48,54 L48,55 L49,55 L49,57 L50,57 L50,58 L51,58 L51,60 L52,60 L52,63 L53,63 L53,65 L54,65 L54,85 L53,85 L53,89 L52,89 L52,92 L51,92 L51,94 L50,94 L50,96 L49,96 L49,97 L48,97 L48,98 L47,98 L47,99 L46,99 L46,100 L45,100 L45,101 L44,101 L44,102 L43,102 L43,103 L41,103 L41,104 L39,104 L39,105 L37,105 L37,106 L33,106 L33,107 L-1,107 L-1,106 L-6,106 L-6,105 L-9,105 L-9,104 L-11,104 L-11,103 L-13,103 L-13,102 L-15,102 L-15,101 L-16,101 L-16,100 L-17,100 L-17,99 L-18,99 L-18,98 L-19,98 L-19,97 L-20,97 L-20,95 L-21,95 L-21,94 L-22,94 L-22,92 L-23,92 L-23,89 L-24,89 L-24,85 L-25,85 L-25,75 L-4,75 L-4,82 L-3,82 L-3,84 L-2,84 L-2,85 L-1,85 L-1,86 L0,86 L0,87 L2,87 L2,88 L26,88 L26,87 L28,87 L28,86 L30,86 L30,85 L31,85 L31,83 L32,83 L32,71 L31,71 L31,69 L30,69 L30,68 L29,68 L29,67 L27,67 L27,66 L23,66 L23,65 L19,65 L19,64 L16,64 L16,63 L11,63 L11,62 L7,62 L7,61 L3,61 L3,60 L-1,60 L-1,59 L-5,59 L-5,58 L-7,58 L-7,57 L-10,57 L-10,56 L-12,56 L-12,55 L-13,55 L-13,54 L-15,54 L-15,53 L-16,53 L-16,52 L-17,52 L-17,51 L-18,51 L-18,50 L-19,50 L-19,49 L-20,49 L-20,47 L-21,47 L-21,46 L-22,46 L-22,44 L-23,44 L-23,40 L-24,40 L-24,38 L-25,38 L-25,26 L-24,26 L-24,19 L-23,19 L-23,16 L-22,16 L-22,14 L-21,14 L-21,12 L-20,12 L-20,11 L-19,11 L-19,9 L-18,9 L-18,8 L-17,8 L-17,7 L-15,7 L-15,6 L-14,6 L-14,5 L-13,5 L-13,4 L-11,4 L-11,3 L-8,3 L-8,2 L-3,2 L-3,1 L0,1 Z "
     transform="translate(767,446)"
     style="fill: #E8E4DD;"
     id="path88" />
  <path
     d="M0,0 L26,0 L26,1 L28,1 L28,2 L29,2 L29,3 L30,3 L30,4 L31,4 L31,6 L32,6 L32,9 L33,9 L33,60 L32,60 L32,63 L31,63 L31,65 L30,65 L30,66 L29,66 L29,67 L27,67 L27,68 L-1,68 L-1,67 L-2,67 L-2,66 L-3,66 L-3,65 L-4,65 L-4,64 L-5,64 L-5,62 L-6,62 L-6,7 L-5,7 L-5,5 L-4,5 L-4,3 L-3,3 L-3,2 L-2,2 L-2,1 L0,1 Z "
     transform="translate(394,466)"
     style="fill: #1e2633;"
     id="path90" />
  <path
     d="M0,0 L73,0 L73,30 L70,30 L70,29 L65,29 L65,28 L61,28 L61,27 L58,27 L58,26 L54,26 L54,25 L51,25 L51,24 L47,24 L47,23 L44,23 L44,22 L41,22 L41,21 L38,21 L38,20 L34,20 L34,19 L32,19 L32,18 L29,18 L29,17 L26,17 L26,16 L23,16 L23,15 L21,15 L21,14 L19,14 L19,13 L17,13 L17,12 L15,12 L15,11 L13,11 L13,10 L11,10 L11,9 L9,9 L9,8 L8,8 L8,7 L6,7 L6,6 L5,6 L5,5 L3,5 L3,4 L2,4 L2,3 L1,3 L1,2 L0,2 Z "
     transform="translate(92,473)"
     style="fill: #1e2633;"
     id="path92" />
  <path
     d="M0,0 L25,0 L25,1 L28,1 L28,2 L30,2 L30,3 L31,3 L31,4 L32,4 L32,6 L33,6 L33,25 L32,25 L32,27 L31,27 L31,28 L29,28 L29,29 L0,29 Z "
     transform="translate(579,466)"
     style="fill: #1e2633;"
     id="path94" />
  <path
     d="M0,0 L26,0 L26,1 L29,1 L29,2 L31,2 L31,3 L32,3 L32,5 L33,5 L33,6 L34,6 L34,22 L33,22 L33,24 L32,24 L32,25 L30,25 L30,26 L0,26 Z "
     transform="translate(486,508)"
     style="fill: #1e2633;"
     id="path96" />
  <path
     d="M0,0 L26,0 L26,1 L28,1 L28,2 L29,2 L29,3 L30,3 L30,4 L31,4 L31,6 L32,6 L32,20 L31,20 L31,21 L30,21 L30,22 L29,22 L29,23 L28,23 L28,24 L0,24 Z "
     transform="translate(485,465)"
     style="fill: #1e2633;"
     id="path98" />
  <path
     d="M0,0 L1,0 L1,3 L2,3 L2,6 L3,6 L3,10 L4,10 L4,13 L5,13 L5,16 L6,16 L6,19 L7,19 L7,23 L8,23 L8,26 L9,26 L9,29 L10,29 L10,32 L11,32 L11,35 L12,35 L12,39 L13,39 L13,41 L-12,41 L-12,39 L-11,39 L-11,36 L-10,36 L-10,32 L-9,32 L-9,29 L-8,29 L-8,25 L-7,25 L-7,22 L-6,22 L-6,19 L-5,19 L-5,16 L-4,16 L-4,12 L-3,12 L-3,9 L-2,9 L-2,5 L-1,5 L-1,2 L0,2 Z "
     transform="translate(691,470)"
     style="fill: #1e2633;"
     id="path100" />
  <path
     d="M0,0 L1,0 L1,1 L2,1 L2,5 L3,5 L3,8 L4,8 L4,11 L5,11 L5,15 L6,15 L6,18 L7,18 L7,21 L8,21 L8,24 L9,24 L9,28 L10,28 L10,31 L11,31 L11,34 L12,34 L12,38 L13,38 L13,41 L-11,41 L-11,38 L-10,38 L-10,34 L-9,34 L-9,30 L-8,30 L-8,27 L-7,27 L-7,24 L-6,24 L-6,20 L-5,20 L-5,17 L-4,17 L-4,13 L-3,13 L-3,10 L-2,10 L-2,7 L-1,7 L-1,3 L0,3 Z "
     transform="translate(873,470)"
     style="fill: #1e2633;"
     id="path102" />
</svg>
